<?xml version="1.0" encoding="UTF-8"?>
<svg id="Layer_1" data-name="Layer 1" xmlns="http://www.w3.org/2000/svg" viewBox="0 0 244.05 147.49">
  <defs>
    <style>
      .cls-1 {
        fill: #f6891f;
        stroke-width: 0px;
      }
    </style>
  </defs>
  <path class="cls-1" d="m122.21,63.39c.25.16.25.36-.03.51-3.35,1.73-6.43,3.91-9.64,5.87-1.39.85-2.91,1.44-4.49,1.83-.18.04-.38.04-.47.04-2.09-.02-4.16-1.53-4.17-3.79,0-.8.29-1.68.68-2.39,1.59-2.87,4.14-4.43,7.31-5.05.57-.11,1.16-.22,1.74-.24.73-.02,1.48.01,2.2.11,1.23.16,2.47.38,3.55,1.01,1.13.65,2.22,1.39,3.32,2.11Z"/>
  <path class="cls-1" d="m128.29,83.51c.2.81-.06,1.52-.5,2.18-.1.15-.46.28-.63.23-3.27-1.03-6.27-2.53-8.65-5.07-.52-.55-.92-1.22-1.31-1.88-1.02-1.72-.14-2.87,1.7-3.01.07,0,.15,0,.22.01,2.44.12,4.68.76,6.42,2.62,1.32,1.42,2.28,3.04,2.75,4.93Z"/>
  <path class="cls-1" d="m143.08,75.43c.1,1.05.22,2.11.31,2.98,0,1.01-.23,1.19-1.02,1.06-1.15-.19-2.09-.8-2.88-1.61-1.56-1.6-3.14-3.2-4.63-4.87-1-1.12-1.82-2.39-2.75-3.57-.99-1.26-2.01-2.51-3.02-3.76-.1-.13-.2-.25-.3-.38-.19-.26-.16-.45.18-.5,1.79-.24,3.56-.35,5.35.09,1.3.32,2.55.73,3.6,1.59,1.53,1.24,2.73,2.75,3.61,4.53.7,1.42,1.39,2.83,1.54,4.44Z"/>
  <path class="cls-1" d="m151.39,68.83c.52,2.09.77,4.21.21,6.34-.54,2-1.71,3.48-3.69,4.23-.19.07-.4.11-.61.11-.53.02-.71-.17-.71-.71-.02-2.56-.36-5.07-1.32-7.45-1.19-2.96-2.87-5.59-5.51-7.5-1.55-1.12-3.26-1.9-5.18-2.13-1.01-.13-2.01-.31-3.02-.34-1.78-.05-3.52.32-5.22.83-.35.11-.57.04-.83-.19-1.38-1.23-2.83-2.38-4.49-3.21-1.5-.75-3.03-1.37-4.72-1.54-.86-.09-1.73-.25-2.59-.25-3.51.03-6.71,1.04-9.46,3.28-1.86,1.52-3.19,3.41-3.84,5.76-.85,3.1.74,6.52,3.67,7.94.96.46,1.96.78,3,.82.8.02,1.61-.14,2.4-.32,2.56-.61,4.74-2.01,6.91-3.41,2.46-1.57,4.86-3.26,7.51-4.5,1.34-.63,1.2-.62,2.09.43,1.02,1.19,2.04,2.38,2.99,3.61.95,1.23,1.79,2.57,2.75,3.79,1.2,1.53,2.43,3.04,3.75,4.47.97,1.04,2.03,2.04,3.37,2.62.85.37,1.74.64,2.61.95.15.05.32.07.47.12.32.11.43.31.24.61-.79,1.3-1.86,2.27-3.27,2.87-1.59.68-3.25.95-4.97.86-.78-.05-1.56-.07-2.34-.14-.53-.05-.58-.2-.46-.74.15-.64.35-1.3.36-1.94.04-2.13-.78-3.98-2.07-5.62-1.41-1.8-3.06-3.32-5.1-4.45-1.37-.76-2.78-1.09-4.29-1.14-1.11-.05-2.21-.04-3.29.31-1.04.33-1.84.99-2.46,1.86-.67.95-.96,2.04-.75,3.19.11.63.38,1.23.66,1.81,1.06,2.25,2.67,4.04,4.74,5.38,1.25.81,2.57,1.5,3.85,2.26.13.08.22.23.33.35-.14.08-.27.22-.42.25-2.21.53-4.38,1.17-6.43,2.19-1.75.87-3.41,1.92-4.77,3.33-1.04,1.07-1.91,2.32-2.85,3.49-.17.21-.31.44-.48.63-.11.12-.28.17-.43.25-.05-.15-.15-.32-.13-.46.09-.64.24-1.27.34-1.91.25-1.6.52-3.19.72-4.79.12-.95.16-1.91.16-2.87,0-1.46-.3-2.87-.91-4.2-.94-2.08-2.61-3.23-4.8-3.65-1.66-.31-3.35-.49-5-.83-2.64-.56-4.44-2.11-5.18-4.76-.39-1.4-.55-2.79-.36-4.27.49-3.79,2-7.11,4.41-10.02.75-.91,1.63-1.7,2.48-2.52,1.98-1.91,4.36-3.23,6.82-4.35,1.97-.88,4.04-1.6,6.12-2.18,1.63-.46,3.34-.7,5.04-.88,1.8-.2,3.61-.28,5.42-.32.89-.02,1.78.17,2.67.27.8.09,1.61.17,2.41.3,1.03.17,2.06.37,3.08.6,3.32.73,6.47,1.93,9.44,3.58,3.03,1.68,5.58,3.95,7.63,6.76,1.58,2.17,2.66,4.56,3.29,7.15Z"/>
  <path class="cls-1" d="m168.54-38.02v11H15.54v13H-8.46v186H2.54v13h267V-38.02h-101ZM104.37,98.02c.18-1.02.35-2.03.53-3.04.38-2.11.88-4.21.8-6.38-.04-1.19-.12-2.39-.7-3.48-.51-.97-1.36-1.53-2.39-1.73-1.39-.28-2.79-.47-4.19-.65-3.8-.51-6.62-2.33-8.15-5.95-.79-1.89-.99-3.85-.9-5.89.16-3.74,1.48-7.1,3.43-10.23,1.27-2.02,2.88-3.76,4.7-5.32,3.29-2.84,7.09-4.75,11.17-6.15,1.98-.67,4-1.17,6.06-1.55,2.43-.46,4.85-.63,7.3-.58,1.37.02,2.74,0,4.1.13,1.51.16,3.01.42,4.49.73,2.37.48,4.69,1.15,6.94,2.05,2.57,1.03,5.01,2.3,7.27,3.91,2.51,1.79,4.65,3.95,6.37,6.52,1.36,2.02,2.37,4.21,3.04,6.56.57,1.97,1.02,3.98.93,6.04-.1,2.35-.63,4.62-2.16,6.52-1.13,1.41-2.53,2.47-4.31,2.94-.74.2-1.5.31-2.24.44-.41.08-.73.22-.89.64-1.09,2.79-3.18,4.54-5.89,5.65-1.24.5-2.56.6-3.87.82-1.35.22-2.68.05-4.01-.04-.96-.06-1.9-.27-2.85-.37-.32-.03-.72-.01-.97.15-1.25.78-2.63,1.15-4.04,1.5-1.92.47-3.8,1.04-5.63,1.8-3.07,1.3-5.29,3.47-7.11,6.17-.62.93-1.35,1.73-2.45,2.15-2.07.8-4.31-.77-4.28-2.82.01-.17,0-.35,0-.53-.03,0-.06-.01-.1-.01Z"/>
</svg>